<svg xmlns="http://www.w3.org/2000/svg" viewBox="0 0 400 260" width="400" height="260" role="img" aria-label="DEVELOPING ROOTS learning kit">
<defs><linearGradient id="g" x1="0" y1="0" x2="1" y2="1"><stop offset="0" stop-color="#7CB342"/><stop offset="1" stop-color="#2E7D32"/></linearGradient>
<clipPath id="c"><rect x="0" y="0" width="400" height="260" rx="10"/></clipPath></defs>
<g clip-path="url(#c)"><rect width="400" height="260" fill="url(#g)"/><path d="M200 130 L600 130 L597 182 Z" fill="#ffffff" opacity="0.16"/><path d="M200 130 L546 330 L517 374 Z" fill="#ffffff" opacity="0.16"/><path d="M200 130 L400 476 L353 500 Z" fill="#ffffff" opacity="0.16"/><path d="M200 130 L200 530 L148 527 Z" fill="#ffffff" opacity="0.16"/><path d="M200 130 L0 476 L-44 447 Z" fill="#ffffff" opacity="0.16"/><path d="M200 130 L-146 330 L-170 283 Z" fill="#ffffff" opacity="0.16"/><path d="M200 130 L-200 130 L-197 78 Z" fill="#ffffff" opacity="0.16"/><path d="M200 130 L-146 -70 L-117 -114 Z" fill="#ffffff" opacity="0.16"/><path d="M200 130 L-0 -216 L47 -240 Z" fill="#ffffff" opacity="0.16"/><path d="M200 130 L200 -270 L252 -267 Z" fill="#ffffff" opacity="0.16"/><path d="M200 130 L400 -216 L444 -187 Z" fill="#ffffff" opacity="0.16"/><path d="M200 130 L546 -70 L570 -23 Z" fill="#ffffff" opacity="0.16"/>
<ellipse cx="200" cy="250" rx="230" ry="60" fill="#ffffff" opacity="0.18"/>
<g transform="translate(120,150)"><path d="M-16 46 q16 -30 16 -30 q0 0 16 30 z" fill="#FFFFFF"/><circle cx="0" cy="0" r="13" fill="#FFCC80"/><path d="M-13 -2 a13 13 0 0 1 26 0 q-6 -7 -13 -7 q-7 0 -13 7 z" fill="#4E342E"/><circle cx="-4.5" cy="2" r="1.8" fill="#3E2723"/><circle cx="4.5" cy="2" r="1.8" fill="#3E2723"/><path d="M-4 7 q4 4 8 0" stroke="#3E2723" stroke-width="1.6" fill="none" stroke-linecap="round"/></g>
<g transform="translate(200,138)"><path d="M-16 46 q16 -30 16 -30 q0 0 16 30 z" fill="#FFF3E0"/><circle cx="0" cy="0" r="13" fill="#FFE0B2"/><path d="M-13 -2 a13 13 0 0 1 26 0 q-6 -7 -13 -7 q-7 0 -13 7 z" fill="#212121"/><circle cx="-4.5" cy="2" r="1.8" fill="#3E2723"/><circle cx="4.5" cy="2" r="1.8" fill="#3E2723"/><path d="M-4 7 q4 4 8 0" stroke="#3E2723" stroke-width="1.6" fill="none" stroke-linecap="round"/></g>
<g transform="translate(280,152)"><path d="M-16 46 q16 -30 16 -30 q0 0 16 30 z" fill="#FFFFFF"/><circle cx="0" cy="0" r="13" fill="#FFCC80"/><path d="M-13 -2 a13 13 0 0 1 26 0 q-6 -7 -13 -7 q-7 0 -13 7 z" fill="#5D4037"/><circle cx="-4.5" cy="2" r="1.8" fill="#3E2723"/><circle cx="4.5" cy="2" r="1.8" fill="#3E2723"/><path d="M-4 7 q4 4 8 0" stroke="#3E2723" stroke-width="1.6" fill="none" stroke-linecap="round"/></g>
<rect x="118" y="26" width="164" height="46" rx="8" fill="#ffffff" opacity="0.94"/>
<text x="200" y="47" text-anchor="middle" font-family="Verdana,Geneva,sans-serif" font-size="17" font-weight="bold" fill="#2E7D32">Little</text>
<text x="200" y="64" text-anchor="middle" font-family="Verdana,Geneva,sans-serif" font-size="12" font-weight="bold" fill="#455A64" letter-spacing="1">MILLENNIUM</text>
<rect x="76" y="196" width="248" height="30" rx="15" fill="#F9A825"/>
<text x="200" y="216" text-anchor="middle" font-family="Verdana,Geneva,sans-serif" font-size="13" font-weight="bold" fill="#37474F" letter-spacing="1.5">FUN LEARNING KIT</text>
<text x="200" y="246" text-anchor="middle" font-family="Verdana,Geneva,sans-serif" font-size="12" font-weight="bold" fill="#ffffff" letter-spacing="1">DEVELOPING ROOTS</text>
</g></svg>